#!OML:ASF X:\für Bonn\!DataBase\2005_08_12_Daniel\c3d\Daniel.ASF
:FULLY-SPECIFIED
:DEGREES
91
root 5.51127 16.8389 -0.153254 40.722 -106.71 -87.2369
lowerback 46.0757 3.27033 -0.117176
upperback 12.2745 -0.165082 -11.8609
thorax -7.83227 -0.847818 -12.8381
lowerneck 9.64004 4.44524 -4.53078
upperneck 17.1832 4.5744 2.60193
head 3.8146 1.72579 1.63189
rclavicle 5.09883e-014 -4.45278e-014
rhumerus -20.5229 12.0606 -81.9202
rradius 41.5813
rwrist 14.7947
rhand -18.8766 14.1567
rfingers 7.12502
rthumb 7.42426 -15.6931
lclavicle 5.09883e-014 -4.45278e-014
lhumerus -42.6556 20.3864 55.7
lradius 29.5849
lwrist -18.3606
lhand -19.6375 -15.5372
lfingers 7.12502
lthumb 6.6898 14.3371
rfemur 26.076 7.62042 6.72895
rtibia 32.8328
rfoot -11.6856 11.0867
rtoes -4.94041
lfemur -85.2039 15.156 -25.6284
ltibia 111.076
lfoot 27.4103 0.44142
ltoes -8.88387
92
root 5.44147 16.8576 -0.151107 40.0812 -106.92 -87.0726
lowerback 46.5367 3.43088 0.0250092
upperback 12.4751 0.0160554 -11.9252
thorax -7.68903 -0.767415 -13.0792
lowerneck 10.1767 4.53786 -4.47827
upperneck 17.861 4.58959 2.7293
head 3.9672 1.70221 1.66649
rclavicle 6.62947e-014 -5.725e-014
rhumerus -19.6803 12.4078 -81.3837
rradius 41.9248
rwrist 13.8076
rhand -19.2786 14.3621
rfingers 7.12502
rthumb 7.03626 -15.501
lclavicle 6.62947e-014 -5.725e-014
lhumerus -42.7413 22.3782 54.3023
lradius 28.5946
lwrist -20.1909
lhand -19.6799 -15.7686
lfingers 7.12502
lthumb 6.64881 14.107
rfemur 27.1826 7.78966 6.53138
rtibia 32.0301
rfoot -11.5284 11.1847
rtoes -4.8069
lfemur -85.9535 14.0775 -24.9976
ltibia 106.517
lfoot 24.898 2.59595
ltoes -10.1137
93
root 5.37403 16.8829 -0.154978 39.7995 -107.003 -87.1807
lowerback 46.8686 3.54692 0.164401
upperback 12.6895 0.168813 -11.9417
thorax -7.49689 -0.695879 -13.2465
lowerneck 10.7882 4.64237 -4.45165
upperneck 18.4849 4.6105 2.87048
head 4.0885 1.6802 1.70747
rclavicle 2.25621e-014 6.83819e-014
rhumerus -18.8634 12.6038 -80.8553
rradius 42.2575
rwrist 12.8936
rhand -19.6272 14.5323
rfingers 7.12502
rthumb 6.69969 -15.3417
lclavicle 2.25621e-014 6.83819e-014
lhumerus -42.8977 24.502 52.9177
lradius 27.6453
lwrist -21.7409
lhand -19.8856 -15.6746
lfingers 7.12502
lthumb 6.45028 14.2072
rfemur 28.3928 8.02358 6.61008
rtibia 31.0223
rfoot -11.3604 10.9144
rtoes -4.6544
lfemur -86.325 12.9883 -24.2427
ltibia 101.59
lfoot 22.6114 4.48355
ltoes -11.381
94
root 5.31182 16.9182 -0.165473 39.8342 -106.956 -87.5283
lowerback 47.0845 3.60598 0.314937
upperback 12.9092 0.279277 -11.932
thorax -7.27562 -0.640328 -13.3666
lowerneck 11.2849 4.74064 -4.30634
upperneck 19.2012 4.63552 2.98599
head 4.27028 1.66529 1.72486
rclavicle 1.19271e-015 1.03368e-013
rhumerus -18.119 12.6641 -80.3845
rradius 42.5788
rwrist 12.1092
rhand -19.948 14.726
rfingers 7.12502
rthumb 6.38998 -15.1576
lclavicle 1.19271e-015 1.03368e-013
lhumerus -43.1125 26.8003 51.4556
lradius 26.6416
lwrist -22.9445
lhand -20.1916 -15.2598
lfingers 7.12502
lthumb 6.15482 14.6308
rfemur 29.6907 8.31189 6.98013
rtibia 29.833
rfoot -11.1901 10.2787
rtoes -4.52375
lfemur -86.3615 11.8958 -23.3742
ltibia 96.3433
lfoot 20.7832 5.95545
ltoes -11.3128
95
root 5.24987 16.9537 -0.179788 40.0596 -106.807 -87.9943
lowerback 48.0976 3.71612 0.227893
upperback 12.184 0.319168 -11.8924
thorax -7.02979 -0.550238 -13.2207
lowerneck 11.871 4.84113 -4.11909
upperneck 19.8503 4.66392 3.07661
head 4.41582 1.65468 1.72293
rclavicle -4.96962e-015 9.54166e-015
rhumerus -17.4726 12.5504 -79.9785
rradius 42.9113
rwrist 11.4246
rhand -20.2701 14.903
rfingers 7.12502
rthumb 6.07907 -14.9898
lclavicle -4.96962e-015 9.54166e-015
lhumerus -43.4569 29.2284 49.9338
lradius 25.6752
lwrist -23.8378
lhand -20.5781 -14.4588
lfingers 7.12502
lthumb 5.78168 15.4423
rfemur 31.0311 8.62004 7.55954
rtibia 28.5425
rfoot -11.0246 9.41807
rtoes -4.35257
lfemur -86.1285 10.8568 -22.4341
ltibia 90.846
lfoot 19.1804 6.77007
ltoes -10.2941
96
root 5.18435 16.9834 -0.196863 40.4979 -106.588 -88.6162
lowerback 48.1196 3.72128 0.362389
upperback 12.4073 0.398801 -11.811
thorax -6.76185 -0.505381 -13.2223
lowerneck 12.0155 4.9393 -3.95745
upperneck 21.211 4.67573 3.29292
head 4.3132 1.64942 1.65406
rclavicle 6.22196e-014 -6.36111e-015
rhumerus -17.132 12.1631 -79.6295
rradius 43.6212
rwrist 10.9248
rhand -20.4763 15.0512
rfingers 7.12502
rthumb 5.88001 -14.8472
lclavicle 6.22196e-014 -6.36111e-015
lhumerus -43.9248 31.7177 48.4291
lradius 24.7559
lwrist -24.2608
lhand -21.1136 -13.3861
lfingers 7.12502
lthumb 5.26465 16.5285
rfemur 32.3783 8.89553 8.25466
rtibia 27.2115
rfoot -10.8983 8.40021
rtoes -4.32257
lfemur -85.7021 9.86633 -21.4463
ltibia 85.21
lfoot 17.2194 7.06476
ltoes -11.1284
97
root 5.11487 17.0075 -0.21539 41.3361 -106.365 -89.6073
lowerback 48.0341 3.71941 0.42746
upperback 12.6544 0.447309 -11.7289
thorax -6.4564 -0.475603 -13.1711
lowerneck 12.532 5.05203 -3.7414
upperneck 21.9169 4.71989 3.38441
head 4.45949 1.65052 1.64606
rclavicle 3.93594e-014 -4.77083e-015
rhumerus -17.2281 11.5585 -79.3927
rradius 44.8422
rwrist 10.4793
rhand -20.5976 15.1389
rfingers 7.12502
rthumb 5.76284 -14.7627
lclavicle 3.93594e-014 -4.77083e-015
lhumerus -44.513 34.1249 46.9514
lradius 23.9428
lwrist -24.0994
lhand -21.6171 -12.0987
lfingers 7.12502
lthumb 4.77846 17.8274
rfemur 33.7025 9.09373 8.88212
rtibia 25.9073
rfoot -10.7877 7.36764
rtoes -4.21821
lfemur -85.1398 8.95166 -20.5594
ltibia 79.5446
lfoot 14.584 7.02123
ltoes -13.2831
